<?xml version="1.0" encoding="utf-8"?>
<!-- Generator: Adobe Illustrator 20.1.0, SVG Export Plug-In . SVG Version: 6.00 Build 0)  -->
<svg version="1.1" xmlns="http://www.w3.org/2000/svg" xmlns:xlink="http://www.w3.org/1999/xlink" x="0px" y="0px"
	 viewBox="0 0 576 576" style="enable-background:new 0 0 576 576;" xml:space="preserve">
<style type="text/css">
	.st0{fill:#070404;stroke:#FFFFFF;stroke-width:12.8136;stroke-miterlimit:10;}
	.st1{fill:#070404;stroke:#FFFFFF;stroke-width:10.1281;stroke-miterlimit:10;}
	.st2{fill:#070404;stroke:#FFFFFF;stroke-width:12.3318;stroke-miterlimit:10;}
	.st3{fill:#070404;stroke:#FFFFFF;stroke-width:11.4506;stroke-miterlimit:10;stroke-opacity:0.6;}
	.st4{fill:#070404;stroke:#FFFFFF;stroke-width:12.8136;stroke-linecap:round;stroke-miterlimit:10;}
	.st5{fill:#E64C3C;}
	.st6{fill:#D14237;}
	.st7{fill:#C03B2B;}
	.st8{fill:#070404;stroke:#FFFFFF;stroke-width:11.88;stroke-miterlimit:10;}
	.st9{fill:#070404;stroke:#FFFFFF;stroke-width:9.3202;stroke-miterlimit:10;}
	.st10{fill:#070404;stroke:#FFFFFF;stroke-width:9;stroke-miterlimit:10;}
	.st11{opacity:0.8;fill:#070404;stroke:#FFFFFF;stroke-width:8.306;stroke-miterlimit:10;stroke-opacity:0.3;}
	.st12{opacity:0.8;fill:#070404;stroke:#FFFFFF;stroke-width:11.88;stroke-miterlimit:10;stroke-opacity:0.4;}
</style>
<g id="Layer_2">
	<line class="st0" x1="115.5" y1="54.3" x2="115.5" y2="205"/>
	<line class="st1" x1="173.8" y1="96.8" x2="173.8" y2="191"/>
	<line class="st2" x1="178.7" y1="124.9" x2="99.7" y2="124.9"/>
	<line class="st3" x1="191.6" y1="124.9" x2="123.5" y2="124.9"/>
	<line class="st2" x1="178.7" y1="178.7" x2="99.7" y2="178.7"/>
	<line class="st3" x1="191.6" y1="178.7" x2="123.5" y2="178.7"/>
	<line class="st4" x1="486.7" y1="335.6" x2="486.7" y2="486.2"/>
</g>
<g id="Layer_3">
	<g>
		<g>
			<rect x="181.8" y="176.8" class="st5" width="221.6" height="221.6"/>
			<polygon class="st6" points="402.4,176 181.8,398.3 402.4,398.3 			"/>
			<polygon class="st7" points="293.9,285.3 403.3,398.3 181.8,398.3 			"/>
		</g>
	</g>
	<line class="st8" x1="272.2" y1="221.8" x2="276" y2="315.1"/>
	<line class="st8" x1="312.6" y1="259.9" x2="314.8" y2="313.6"/>
	<line class="st9" x1="320.1" y1="309.1" x2="269.9" y2="311.2"/>
	<line class="st10" x1="318.6" y1="264" x2="269.8" y2="266"/>
	<line class="st11" x1="341" y1="263.1" x2="242.7" y2="267.1"/>
	<line class="st12" x1="316.3" y1="350.9" x2="311" y2="220.3"/>
	<line class="st12" x1="277.5" y1="352.5" x2="272.2" y2="221.8"/>
	<line class="st11" x1="342.9" y1="308.9" x2="244.6" y2="312.9"/>
</g>
</svg>
